name p8_grf_mean_speed_1.2
datacolumns 13
datarows 63
range 0.0000000000 0.6200000000
endheader
time	grf_x_l_mean	grf_x_l_var	grf_y_l_mean	grf_y_l_var	grf_z_l_mean	grf_z_l_var	grf_x_r_mean	grf_x_r_var	grf_y_r_mean	grf_y_r_var	grf_z_r_mean	grf_z_r_var
0.0000000000	121.9722410800	1.0000000000	647.1077796006	1.0000000000	0.0000000000	0.0000000000	3.9301532075	1.0000000000	11.1339645096	1.0000000000	0.0000000000	0.0000000000
0.0100000000	130.6398820116	1.0000000000	631.8087620320	1.0000000000	0.0000000000	0.0000000000	3.8552872782	1.0000000000	46.8249393814	1.0000000000	0.0000000000	0.0000000000
0.0200000000	138.0130514943	1.0000000000	608.5538478819	1.0000000000	0.0000000000	0.0000000000	0.2390045852	1.0000000000	105.5028028439	1.0000000000	0.0000000000	0.0000000000
0.0300000000	143.1668157185	1.0000000000	575.5662801703	1.0000000000	0.0000000000	0.0000000000	-10.7521435357	1.0000000000	183.7179545857	1.0000000000	0.0000000000	0.0000000000
0.0400000000	144.1350591505	1.0000000000	531.0413516152	1.0000000000	0.0000000000	0.0000000000	-29.3902491574	1.0000000000	272.1839004329	1.0000000000	0.0000000000	0.0000000000
0.0500000000	139.8796122949	1.0000000000	474.0409382432	1.0000000000	0.0000000000	0.0000000000	-50.8546969167	1.0000000000	360.5141906174	1.0000000000	0.0000000000	0.0000000000
0.0600000000	128.8545698661	1.0000000000	405.6504025065	1.0000000000	0.0000000000	0.0000000000	-71.3129904987	1.0000000000	440.8018583971	1.0000000000	0.0000000000	0.0000000000
0.0700000000	110.0399928712	1.0000000000	329.5200271802	1.0000000000	0.0000000000	0.0000000000	-88.9811464468	1.0000000000	508.5434368525	1.0000000000	0.0000000000	0.0000000000
0.0800000000	85.5329159933	1.0000000000	251.7349547075	1.0000000000	0.0000000000	0.0000000000	-102.7483953923	1.0000000000	564.0261926585	1.0000000000	0.0000000000	0.0000000000
0.0900000000	58.6973875087	1.0000000000	179.7808803041	1.0000000000	0.0000000000	0.0000000000	-112.4844781230	1.0000000000	610.1381972630	1.0000000000	0.0000000000	0.0000000000
0.1000000000	34.4234171065	1.0000000000	119.2954163992	1.0000000000	0.0000000000	0.0000000000	-118.7602410718	1.0000000000	648.9935327293	1.0000000000	0.0000000000	0.0000000000
0.1100000000	16.4696486689	1.0000000000	72.4792830088	1.0000000000	0.0000000000	0.0000000000	-120.9499451845	1.0000000000	681.0771438596	1.0000000000	0.0000000000	0.0000000000
0.1200000000	5.2006086996	1.0000000000	39.1262574088	1.0000000000	0.0000000000	0.0000000000	-119.5030974353	1.0000000000	706.0875894319	1.0000000000	0.0000000000	0.0000000000
0.1300000000	-0.8499332994	1.0000000000	17.5988846411	1.0000000000	0.0000000000	0.0000000000	-115.3969785900	1.0000000000	723.8538490889	1.0000000000	0.0000000000	0.0000000000
0.1400000000	-2.9005050660	1.0000000000	5.1435677577	1.0000000000	0.0000000000	0.0000000000	-108.8866736878	1.0000000000	734.3193750241	1.0000000000	0.0000000000	0.0000000000
0.1500000000	0.0000000000	1.0000000000	0.0000000000	1.0000000000	0.0000000000	0.0000000000	-100.9297196908	1.0000000000	738.1311439256	1.0000000000	0.0000000000	0.0000000000
0.1600000000	0.0000000000	1.0000000000	0.0000000000	1.0000000000	0.0000000000	0.0000000000	-92.6014908210	1.0000000000	736.7718602127	1.0000000000	0.0000000000	0.0000000000
0.1700000000	0.0000000000	1.0000000000	0.0000000000	1.0000000000	0.0000000000	0.0000000000	-83.9265479547	1.0000000000	731.1921692926	1.0000000000	0.0000000000	0.0000000000
0.1800000000	0.0000000000	1.0000000000	0.0000000000	1.0000000000	0.0000000000	0.0000000000	-75.2937654173	1.0000000000	721.1495812208	1.0000000000	0.0000000000	0.0000000000
0.1900000000	0.0000000000	1.0000000000	0.0000000000	1.0000000000	0.0000000000	0.0000000000	-66.9304852523	1.0000000000	706.2728507934	1.0000000000	0.0000000000	0.0000000000
0.2000000000	0.0000000000	1.0000000000	0.0000000000	1.0000000000	0.0000000000	0.0000000000	-58.8045189151	1.0000000000	687.1807867280	1.0000000000	0.0000000000	0.0000000000
0.2100000000	0.0000000000	1.0000000000	0.0000000000	1.0000000000	0.0000000000	0.0000000000	-51.1398561933	1.0000000000	665.0623338345	1.0000000000	0.0000000000	0.0000000000
0.2200000000	-0.0385362720	1.0000000000	0.1050405875	1.0000000000	0.0000000000	0.0000000000	-44.1500117832	1.0000000000	641.0094746632	1.0000000000	0.0000000000	0.0000000000
0.2300000000	-0.0856970033	1.0000000000	0.1317601466	1.0000000000	0.0000000000	0.0000000000	-37.6385844310	1.0000000000	616.3682278596	1.0000000000	0.0000000000	0.0000000000
0.2400000000	-0.1792751914	1.0000000000	0.1070680384	1.0000000000	0.0000000000	0.0000000000	-31.7610583313	1.0000000000	593.0323326776	1.0000000000	0.0000000000	0.0000000000
0.2500000000	-0.2615428411	1.0000000000	0.0622022626	1.0000000000	0.0000000000	0.0000000000	-26.4186736826	1.0000000000	572.5499255275	1.0000000000	0.0000000000	0.0000000000
0.2600000000	-0.2439374988	1.0000000000	0.0277565158	1.0000000000	0.0000000000	0.0000000000	-21.4980402280	1.0000000000	555.6494816531	1.0000000000	0.0000000000	0.0000000000
0.2700000000	-0.1714408039	1.0000000000	0.0093521507	1.0000000000	0.0000000000	0.0000000000	-17.0534948671	1.0000000000	542.3467226512	1.0000000000	0.0000000000	0.0000000000
0.2800000000	0.0000000000	1.0000000000	0.0000000000	1.0000000000	0.0000000000	0.0000000000	-12.9003288569	1.0000000000	532.4137921742	1.0000000000	0.0000000000	0.0000000000
0.2900000000	0.0000000000	1.0000000000	0.0000000000	1.0000000000	0.0000000000	0.0000000000	-8.9544157000	1.0000000000	525.9362833423	1.0000000000	0.0000000000	0.0000000000
0.3000000000	-0.0127314649	1.0000000000	0.0034553727	1.0000000000	0.0000000000	0.0000000000	-5.2193872919	1.0000000000	522.8473597593	1.0000000000	0.0000000000	0.0000000000
0.3100000000	-0.0063078011	1.0000000000	0.0087322900	1.0000000000	0.0000000000	0.0000000000	-1.3927480595	1.0000000000	522.3750192152	1.0000000000	0.0000000000	0.0000000000
0.3200000000	-0.0022812193	1.0000000000	0.0055349465	1.0000000000	0.0000000000	0.0000000000	2.6699560981	1.0000000000	523.8652026465	1.0000000000	0.0000000000	0.0000000000
0.3300000000	0.0000000000	1.0000000000	0.0000000000	1.0000000000	0.0000000000	0.0000000000	6.8706179237	1.0000000000	527.1943411388	1.0000000000	0.0000000000	0.0000000000
0.3400000000	0.0000000000	1.0000000000	0.0000000000	1.0000000000	0.0000000000	0.0000000000	11.2859412686	1.0000000000	532.0303642177	1.0000000000	0.0000000000	0.0000000000
0.3500000000	0.0000000000	1.0000000000	0.0000000000	1.0000000000	0.0000000000	0.0000000000	15.8348521168	1.0000000000	537.8470439613	1.0000000000	0.0000000000	0.0000000000
0.3600000000	-0.0359791454	1.0000000000	0.0052222470	1.0000000000	0.0000000000	0.0000000000	20.3882982527	1.0000000000	544.3408345204	1.0000000000	0.0000000000	0.0000000000
0.3700000000	-0.0530456701	1.0000000000	0.0425484163	1.0000000000	0.0000000000	0.0000000000	25.1179515574	1.0000000000	551.5040767243	1.0000000000	0.0000000000	0.0000000000
0.3800000000	-0.0524906312	1.0000000000	0.1086241552	1.0000000000	0.0000000000	0.0000000000	29.9437186373	1.0000000000	559.5552863014	1.0000000000	0.0000000000	0.0000000000
0.3900000000	-0.0458279606	1.0000000000	0.2138741990	1.0000000000	0.0000000000	0.0000000000	34.9795224556	1.0000000000	568.6198762128	1.0000000000	0.0000000000	0.0000000000
0.4000000000	-0.0453968550	1.0000000000	0.3448453316	1.0000000000	0.0000000000	0.0000000000	40.5401265662	1.0000000000	578.4709903257	1.0000000000	0.0000000000	0.0000000000
0.4100000000	-0.0527663041	1.0000000000	0.4338103917	1.0000000000	0.0000000000	0.0000000000	46.7340048507	1.0000000000	588.9035802568	1.0000000000	0.0000000000	0.0000000000
0.4200000000	-0.0615200158	1.0000000000	0.3306382124	1.0000000000	0.0000000000	0.0000000000	53.6085474082	1.0000000000	599.9487035165	1.0000000000	0.0000000000	0.0000000000
0.4300000000	0.0000000000	1.0000000000	0.0000000000	1.0000000000	0.0000000000	0.0000000000	61.3526957554	1.0000000000	611.3354597215	1.0000000000	0.0000000000	0.0000000000
0.4400000000	0.0000000000	1.0000000000	0.0000000000	1.0000000000	0.0000000000	0.0000000000	69.9240775324	1.0000000000	622.2680857370	1.0000000000	0.0000000000	0.0000000000
0.4500000000	0.0000000000	1.0000000000	0.0000000000	1.0000000000	0.0000000000	0.0000000000	79.2469202581	1.0000000000	631.8896667083	1.0000000000	0.0000000000	0.0000000000
0.4600000000	0.0000000000	1.0000000000	0.0000000000	1.0000000000	0.0000000000	0.0000000000	89.2779331177	1.0000000000	639.5023777627	1.0000000000	0.0000000000	0.0000000000
0.4700000000	0.0000000000	1.0000000000	0.0000000000	1.0000000000	0.0000000000	0.0000000000	99.6989374247	1.0000000000	644.2353516973	1.0000000000	0.0000000000	0.0000000000
0.4800000000	0.0000000000	1.0000000000	0.0000000000	1.0000000000	0.0000000000	0.0000000000	110.3576469393	1.0000000000	644.9371996298	1.0000000000	0.0000000000	0.0000000000
0.4900000000	1.3042700965	1.0000000000	0.1498880244	1.0000000000	0.0000000000	0.0000000000	121.0914548973	1.0000000000	640.3981377102	1.0000000000	0.0000000000	0.0000000000
0.5000000000	0.4382985139	1.0000000000	24.9103775166	1.0000000000	0.0000000000	0.0000000000	131.4659571262	1.0000000000	629.4107498581	1.0000000000	0.0000000000	0.0000000000
0.5100000000	-2.5277791930	1.0000000000	72.0008830645	1.0000000000	0.0000000000	0.0000000000	140.9272034621	1.0000000000	610.6637563337	1.0000000000	0.0000000000	0.0000000000
0.5200000000	-9.8077114722	1.0000000000	143.2975378928	1.0000000000	0.0000000000	0.0000000000	148.5689032706	1.0000000000	582.5233926683	1.0000000000	0.0000000000	0.0000000000
0.5300000000	-24.0816532398	1.0000000000	232.7372174601	1.0000000000	0.0000000000	0.0000000000	152.5710295194	1.0000000000	543.0347728814	1.0000000000	0.0000000000	0.0000000000
0.5400000000	-44.8264561303	1.0000000000	328.4078342881	1.0000000000	0.0000000000	0.0000000000	150.8373897012	1.0000000000	490.6725195381	1.0000000000	0.0000000000	0.0000000000
0.5500000000	-67.9489791655	1.0000000000	418.5113656933	1.0000000000	0.0000000000	0.0000000000	141.9802634182	1.0000000000	425.8572203790	1.0000000000	0.0000000000	0.0000000000
0.5600000000	-89.6573506500	1.0000000000	495.5741984516	1.0000000000	0.0000000000	0.0000000000	125.1234169859	1.0000000000	351.7945811120	1.0000000000	0.0000000000	0.0000000000
0.5700000000	-107.8532203544	1.0000000000	557.5395820258	1.0000000000	0.0000000000	0.0000000000	101.5397909179	1.0000000000	273.9601416887	1.0000000000	0.0000000000	0.0000000000
0.5800000000	-121.3315925422	1.0000000000	606.8920143553	1.0000000000	0.0000000000	0.0000000000	75.1145891637	1.0000000000	199.2467385652	1.0000000000	0.0000000000	0.0000000000
0.5900000000	-129.7833523893	1.0000000000	647.7171600258	1.0000000000	0.0000000000	0.0000000000	50.1969428287	1.0000000000	134.2018181711	1.0000000000	0.0000000000	0.0000000000
0.6000000000	-133.3733613876	1.0000000000	682.4299443026	1.0000000000	0.0000000000	0.0000000000	29.9525359756	1.0000000000	82.5487676014	1.0000000000	0.0000000000	0.0000000000
0.6100000000	-132.3954677979	1.0000000000	710.8844534736	1.0000000000	0.0000000000	0.0000000000	15.6888978284	1.0000000000	44.6626142573	1.0000000000	0.0000000000	0.0000000000
0.6200000000	-127.7808167650	1.0000000000	732.1465703042	1.0000000000	0.0000000000	0.0000000000	6.7632610757	1.0000000000	19.3665033615	1.0000000000	0.0000000000	0.0000000000
